<?xml version="1.0" encoding="utf-8"?><svg xmlns="http://www.w3.org/2000/svg" xmlns:xlink="http://www.w3.org/1999/xlink"><symbol viewBox="0 0 30 30" id="arrow" xmlns="http://www.w3.org/2000/svg"><path d="M9.4297 4.10743C9.12721 4.25003 8.23702 5.15751 8.10738 5.45136C7.97774 5.74089 7.97774 6.15574 8.10738 6.44527C8.18516 6.62676 8.88521 7.3441 12.4028 10.866L16.6031 15.0663L12.3855 19.2926C7.70981 23.9682 8.00366 23.6398 8.00366 24.2275C8.00798 24.6597 8.12034 24.8541 8.68643 25.4202C9.27413 26.0079 9.48588 26.1289 9.94826 26.1289C10.1773 26.1289 10.3026 26.103 10.4668 26.0252C10.6397 25.9431 11.6595 24.9449 15.7864 20.8094C19.9824 16.6047 20.9028 15.6627 20.9504 15.5201C21.0454 15.2435 21.0238 14.7768 20.9115 14.5261C20.8294 14.3447 19.9608 13.4588 15.7691 9.26709C10.1686 3.66665 10.5446 4.00372 9.94826 4.00372C9.71923 4.00372 9.59391 4.02964 9.4297 4.10743Z"/></symbol><symbol viewBox="0 0 40 40" id="arrow-link" xmlns="http://www.w3.org/2000/svg"><path d="M9.86133 31.2461L30.9863 10.1211M30.9863 10.1211V30.4011M30.9863 10.1211H10.7063"/></symbol></svg>