<?xml version="1.0" encoding="utf-8"?><svg xmlns="http://www.w3.org/2000/svg" xmlns:xlink="http://www.w3.org/1999/xlink"><symbol viewBox="0 0 30 30" id="arrow" xmlns="http://www.w3.org/2000/svg"><path d="M9.4297 4.10743C9.12721 4.25003 8.23702 5.15751 8.10738 5.45136C7.97774 5.74089 7.97774 6.15574 8.10738 6.44527C8.18516 6.62676 8.88521 7.3441 12.4028 10.866L16.6031 15.0663L12.3855 19.2926C7.70981 23.9682 8.00366 23.6398 8.00366 24.2275C8.00798 24.6597 8.12034 24.8541 8.68643 25.4202C9.27413 26.0079 9.48588 26.1289 9.94826 26.1289C10.1773 26.1289 10.3026 26.103 10.4668 26.0252C10.6397 25.9431 11.6595 24.9449 15.7864 20.8094C19.9824 16.6047 20.9028 15.6627 20.9504 15.5201C21.0454 15.2435 21.0238 14.7768 20.9115 14.5261C20.8294 14.3447 19.9608 13.4588 15.7691 9.26709C10.1686 3.66665 10.5446 4.00372 9.94826 4.00372C9.71923 4.00372 9.59391 4.02964 9.4297 4.10743Z"/></symbol><symbol viewBox="0 0 40 40" id="arrow-link" xmlns="http://www.w3.org/2000/svg"><path d="M9.86133 31.2461L30.9863 10.1211M30.9863 10.1211V30.4011M30.9863 10.1211H10.7063"/></symbol><symbol viewBox="0 0 34 34" id="calendar" xmlns="http://www.w3.org/2000/svg"><path d="M31.4375 8.74991C31.4375 7.65589 31.0029 6.60668 30.2293 5.83309C29.4557 5.0595 28.4065 4.62491 27.3125 4.62491H26.2812V3.62266C26.2812 3.06772 25.8546 2.59141 25.2996 2.56369C25.1602 2.55698 25.0208 2.57864 24.89 2.62737C24.7592 2.67609 24.6397 2.75087 24.5386 2.84717C24.4375 2.94347 24.3571 3.05929 24.3021 3.1876C24.2471 3.31592 24.2188 3.45406 24.2188 3.59366V4.62491H9.78125V3.62266C9.78125 3.06772 9.35457 2.59141 8.79963 2.56369C8.66019 2.55698 8.52085 2.57864 8.39003 2.62737C8.25922 2.67609 8.13965 2.75087 8.03859 2.84717C7.93753 2.94347 7.85707 3.05929 7.8021 3.1876C7.74712 3.31592 7.71876 3.45406 7.71875 3.59366V4.62491H6.6875C5.59348 4.62491 4.54427 5.0595 3.77068 5.83309C2.9971 6.60668 2.5625 7.65589 2.5625 8.74991V9.52334C2.5625 9.59172 2.58966 9.6573 2.63801 9.70564C2.68636 9.75399 2.75194 9.78116 2.82031 9.78116H31.1797C31.2481 9.78116 31.3136 9.75399 31.362 9.70564C31.4103 9.6573 31.4375 9.59172 31.4375 9.52334V8.74991ZM2.5625 27.3124C2.5625 28.4064 2.9971 29.4556 3.77068 30.2292C4.54427 31.0028 5.59348 31.4374 6.6875 31.4374H27.3125C28.4065 31.4374 29.4557 31.0028 30.2293 30.2292C31.0029 29.4556 31.4375 28.4064 31.4375 27.3124V12.037C31.4375 11.9857 31.4171 11.9366 31.3809 11.9003C31.3446 11.864 31.2954 11.8437 31.2441 11.8437H2.75586C2.70458 11.8437 2.6554 11.864 2.61913 11.9003C2.58287 11.9366 2.5625 11.9857 2.5625 12.037V27.3124ZM24.7344 13.9062C25.0403 13.9062 25.3394 13.9969 25.5938 14.1669C25.8482 14.3368 26.0464 14.5784 26.1635 14.8611C26.2806 15.1437 26.3112 15.4547 26.2515 15.7548C26.1918 16.0549 26.0445 16.3305 25.8282 16.5468C25.6118 16.7632 25.3362 16.9105 25.0362 16.9702C24.7361 17.0299 24.4251 16.9992 24.1424 16.8822C23.8598 16.7651 23.6182 16.5668 23.4482 16.3124C23.2782 16.058 23.1875 15.759 23.1875 15.453C23.1875 15.0428 23.3505 14.6493 23.6406 14.3592C23.9307 14.0691 24.3241 13.9062 24.7344 13.9062ZM24.7344 19.0624C25.0403 19.0624 25.3394 19.1531 25.5938 19.3231C25.8482 19.4931 26.0464 19.7347 26.1635 20.0173C26.2806 20.3 26.3112 20.611 26.2515 20.9111C26.1918 21.2111 26.0445 21.4868 25.8282 21.7031C25.6118 21.9194 25.3362 22.0667 25.0362 22.1264C24.7361 22.1861 24.4251 22.1555 24.1424 22.0384C23.8598 21.9213 23.6182 21.7231 23.4482 21.4687C23.2782 21.2143 23.1875 20.9152 23.1875 20.6093C23.1875 20.199 23.3505 19.8056 23.6406 19.5155C23.9307 19.2254 24.3241 19.0624 24.7344 19.0624ZM19.5781 13.9062C19.8841 13.9062 20.1831 13.9969 20.4375 14.1669C20.6919 14.3368 20.8902 14.5784 21.0073 14.8611C21.1243 15.1437 21.155 15.4547 21.0953 15.7548C21.0356 16.0549 20.8883 16.3305 20.6719 16.5468C20.4556 16.7632 20.18 16.9105 19.8799 16.9702C19.5798 17.0299 19.2688 16.9992 18.9862 16.8822C18.7035 16.7651 18.4619 16.5668 18.2919 16.3124C18.122 16.058 18.0312 15.759 18.0312 15.453C18.0312 15.0428 18.1942 14.6493 18.4843 14.3592C18.7744 14.0691 19.1679 13.9062 19.5781 13.9062ZM19.5781 19.0624C19.8841 19.0624 20.1831 19.1531 20.4375 19.3231C20.6919 19.4931 20.8902 19.7347 21.0073 20.0173C21.1243 20.3 21.155 20.611 21.0953 20.9111C21.0356 21.2111 20.8883 21.4868 20.6719 21.7031C20.4556 21.9194 20.18 22.0667 19.8799 22.1264C19.5798 22.1861 19.2688 22.1555 18.9862 22.0384C18.7035 21.9213 18.4619 21.7231 18.2919 21.4687C18.122 21.2143 18.0312 20.9152 18.0312 20.6093C18.0312 20.199 18.1942 19.8056 18.4843 19.5155C18.7744 19.2254 19.1679 19.0624 19.5781 19.0624ZM19.5781 24.2187C19.8841 24.2187 20.1831 24.3094 20.4375 24.4794C20.6919 24.6493 20.8902 24.8909 21.0073 25.1736C21.1243 25.4562 21.155 25.7672 21.0953 26.0673C21.0356 26.3674 20.8883 26.643 20.6719 26.8593C20.4556 27.0757 20.18 27.223 19.8799 27.2827C19.5798 27.3424 19.2688 27.3117 18.9862 27.1947C18.7035 27.0776 18.4619 26.8793 18.2919 26.6249C18.122 26.3705 18.0312 26.0715 18.0312 25.7655C18.0312 25.3553 18.1942 24.9618 18.4843 24.6717C18.7744 24.3816 19.1679 24.2187 19.5781 24.2187ZM14.4219 19.0624C14.7278 19.0624 15.0269 19.1531 15.2813 19.3231C15.5357 19.4931 15.7339 19.7347 15.851 20.0173C15.9681 20.3 15.9987 20.611 15.939 20.9111C15.8793 21.2111 15.732 21.4868 15.5157 21.7031C15.2993 21.9194 15.0237 22.0667 14.7237 22.1264C14.4236 22.1861 14.1126 22.1555 13.8299 22.0384C13.5473 21.9213 13.3057 21.7231 13.1357 21.4687C12.9657 21.2143 12.875 20.9152 12.875 20.6093C12.875 20.199 13.038 19.8056 13.3281 19.5155C13.6182 19.2254 14.0116 19.0624 14.4219 19.0624ZM14.4219 24.2187C14.7278 24.2187 15.0269 24.3094 15.2813 24.4794C15.5357 24.6493 15.7339 24.8909 15.851 25.1736C15.9681 25.4562 15.9987 25.7672 15.939 26.0673C15.8793 26.3674 15.732 26.643 15.5157 26.8593C15.2993 27.0757 15.0237 27.223 14.7237 27.2827C14.4236 27.3424 14.1126 27.3117 13.8299 27.1947C13.5473 27.0776 13.3057 26.8793 13.1357 26.6249C12.9657 26.3705 12.875 26.0715 12.875 25.7655C12.875 25.3553 13.038 24.9618 13.3281 24.6717C13.6182 24.3816 14.0116 24.2187 14.4219 24.2187ZM9.26562 19.0624C9.57157 19.0624 9.87064 19.1531 10.125 19.3231C10.3794 19.4931 10.5777 19.7347 10.6948 20.0173C10.8118 20.3 10.8425 20.611 10.7828 20.9111C10.7231 21.2111 10.5758 21.4868 10.3594 21.7031C10.1431 21.9194 9.86747 22.0667 9.56741 22.1264C9.26734 22.1861 8.95632 22.1555 8.67366 22.0384C8.39101 21.9213 8.14942 21.7231 7.97945 21.4687C7.80947 21.2143 7.71875 20.9152 7.71875 20.6093C7.71875 20.199 7.88172 19.8056 8.17182 19.5155C8.46191 19.2254 8.85537 19.0624 9.26562 19.0624ZM9.26562 24.2187C9.57157 24.2187 9.87064 24.3094 10.125 24.4794C10.3794 24.6493 10.5777 24.8909 10.6948 25.1736C10.8118 25.4562 10.8425 25.7672 10.7828 26.0673C10.7231 26.3674 10.5758 26.643 10.3594 26.8593C10.1431 27.0757 9.86747 27.223 9.56741 27.2827C9.26734 27.3424 8.95632 27.3117 8.67366 27.1947C8.39101 27.0776 8.14942 26.8793 7.97945 26.6249C7.80947 26.3705 7.71875 26.0715 7.71875 25.7655C7.71875 25.3553 7.88172 24.9618 8.17182 24.6717C8.46191 24.3816 8.85537 24.2187 9.26562 24.2187Z"/></symbol><symbol viewBox="0 0 36 36" id="check" xmlns="http://www.w3.org/2000/svg"><path d="M13.5 24.255L8.29497 19.05C8.01451 18.7695 7.63411 18.612 7.23747 18.612C6.84083 18.612 6.46044 18.7695 6.17997 19.05C5.89951 19.3305 5.74194 19.7109 5.74194 20.1075C5.74194 20.3039 5.78063 20.4984 5.85578 20.6798C5.93094 20.8613 6.0411 21.0261 6.17997 21.165L12.45 27.435C13.035 28.02 13.98 28.02 14.565 27.435L30.435 11.565C30.7154 11.2845 30.873 10.9041 30.873 10.5075C30.873 10.1109 30.7154 9.73046 30.435 9.44999C30.1545 9.16953 29.7741 9.01196 29.3775 9.01196C28.9808 9.01196 28.6004 9.16953 28.32 9.44999L13.5 24.255Z"/></symbol><symbol viewBox="0 0 40 39" id="click" xmlns="http://www.w3.org/2000/svg"><path d="M17.0786 4.9991V16.7313C17.0786 16.9427 17.0786 19.3442 17.0786 19.563C17.0786 20.4873 16.798 22.0182 15.2712 20.9216L12.0744 17.1264C11.1016 15.971 9.37681 15.8245 8.22348 16.7952C7.06811 17.769 6.92062 19.4928 7.89133 20.6482L14.3284 28.2922C15.6045 29.8705 16.5153 30.7762 17.7439 32.1069C19.9453 34.4941 21.9663 36.4025 25.4396 36.4025C30.4613 36.4025 34.5319 32.3319 34.5319 27.3101V15.8369C34.5319 14.5113 33.458 13.4374 32.1335 13.4374C31.4175 13.4374 30.7831 13.7561 30.3426 14.2534V13.8789C30.3426 12.5543 29.2698 11.4805 27.9442 11.4805C27.2004 11.4805 26.5454 11.825 26.1049 12.3563C25.8801 11.2649 24.9145 10.4427 23.756 10.4427C22.9896 10.4427 22.3149 10.809 21.8765 11.3681V4.9991C21.8765 3.67452 20.8026 2.59962 19.478 2.59962C18.1535 2.59962 17.0786 3.67452 17.0786 4.9991Z"/></symbol><symbol viewBox="0 0 36 36" id="close" xmlns="http://www.w3.org/2000/svg"><path d="M30 30L6 6M30 6L6 30"/></symbol></svg>